<?xml version="1.0" standalone="no"?>
<!DOCTYPE svg PUBLIC "-//W3C//DTD SVG 20010904//EN"
 "http://www.w3.org/TR/2001/REC-SVG20010904/DTD/svg10.dtd">
<svg version="1.0" xmlns="http://www.w3.org/2000/svg"
 width="2048.000000pt" height="2048.000000pt" viewBox="0 0 2048.000000 2048.000000"
 preserveAspectRatio="xMidYMid meet">
<defs>
  <linearGradient id="vermindGradient" x1="0%" y1="0%" x2="100%" y2="100%">
    <stop offset="0%" style="stop-color:#667eea;stop-opacity:1" />
    <stop offset="100%" style="stop-color:#764ba2;stop-opacity:1" />
  </linearGradient>
</defs>
<metadata>
Created by potrace 1.16, written by Peter Selinger 2001-2019
</metadata>
<g transform="translate(0.000000,2048.000000) scale(0.100000,-0.100000)"
fill="url(#vermindGradient)" stroke="none">
<path d="M9233 16759 c-294 -38 -593 -220 -742 -451 -41 -63 -46 -68 -80 -68
-59 0 -219 -48 -319 -95 -52 -25 -100 -45 -106 -45 -7 0 -26 24 -43 53 -101
172 -299 497 -319 525 l-25 32 -1495 0 c-821 0 -1494 -2 -1494 -5 0 -3 20 -38
43 -78 24 -39 117 -196 207 -347 89 -151 193 -324 230 -385 37 -60 181 -301
320 -535 139 -234 373 -625 520 -870 147 -245 367 -614 490 -820 123 -206 372
-625 555 -930 182 -305 426 -712 540 -905 115 -192 288 -483 385 -645 97 -162
311 -520 475 -795 164 -275 459 -768 655 -1095 196 -327 513 -858 705 -1180
191 -322 356 -593 367 -602 17 -15 40 -18 142 -18 66 0 126 4 132 8 5 4 91
142 189 307 98 165 305 512 460 770 383 639 648 1082 860 1440 98 165 315 530
483 810 363 606 633 1058 767 1285 54 91 143 239 198 330 55 91 138 230 185
310 47 80 158 267 247 415 89 149 309 518 490 820 180 303 365 611 410 685 45
74 172 286 282 470 110 184 242 405 293 490 51 85 130 218 175 296 110 187
384 647 424 708 17 28 31 54 31 58 0 4 -675 8 -1499 8 l-1500 0 -57 -97 c-63
-108 -254 -426 -291 -486 l-23 -37 -73 39 c-95 52 -208 89 -313 103 l-85 11
-44 68 c-137 211 -347 355 -622 425 -91 23 -129 28 -243 28 -235 1 -426 -56
-620 -183 -56 -37 -213 -186 -243 -231 l-17 -25 -17 25 c-34 48 -149 163 -213
211 -207 157 -508 233 -777 198z m327 -355 c177 -40 359 -181 433 -334 56
-116 68 -175 74 -362 15 -476 -111 -797 -442 -1123 -61 -60 -158 -147 -216
-191 -113 -89 -283 -198 -298 -192 -9 3 -269 434 -616 1023 -65 110 -167 281
-228 380 -60 99 -110 180 -110 180 0 0 50 -81 110 -180 61 -99 148 -248 194
-332 93 -170 172 -313 242 -437 l42 -75 58 21 c150 55 299 186 404 356 87 141
122 277 122 468 0 129 -3 155 -27 228 -56 169 -163 292 -316 364 -98 46 -180
62 -287 53 -93 -8 -159 -28 -245 -76 -63 -35 -162 -132 -208 -204 l-29 -47 18
23 c45 58 130 138 188 178 119 82 274 123 420 111z m-424 -4845 c176 -29 350
-161 443 -335 58 -110 80 -213 80 -380 0 -154 -17 -248 -65 -360 -95 -222
-291 -395 -521 -458 -54 -15 -102 -21 -193 -21 -119 0 -186 14 -288 60 -168
78 -299 241 -356 442 -28 99 -38 320 -20 440 34 225 148 412 320 527 142 95
364 135 600 85z m-6860 -605 c96 -162 175 -297 175 -300 0 -3 -48 -33 -106
-67 -59 -34 -142 -91 -185 -127 l-78 -65 -82 138 c-45 76 -124 209 -175 295
l-93 156 103 174 c57 95 107 173 111 173 4 0 85 -133 330 -377z m13325 -15 c51
-86 92 -159 92 -162 0 -3 -79 -138 -175 -300 -96 -162 -178 -294 -181 -293 -4
2 -43 35 -88 74 -77 67 -204 152 -289 194 l-42 21 168 283 c92 156 172 287
178 291 5 4 10 5 10 0 0 -5 45 -53 127 -108z m-13173 -1629 l270 -453 -49 -82
c-27 -45 -75 -125 -107 -178 -32 -53 -91 -152 -131 -220 -40 -69 -100 -168
-133 -220 -33 -52 -75 -123 -93 -157 -18 -35 -34 -63 -37 -63 -2 0 -19 28 -37
63 -18 34 -55 96 -82 138 -27 41 -80 128 -118 192 -38 65 -99 168 -135 230
-36 62 -94 162 -130 222 -35 61 -85 146 -110 190 l-46 80 258 433 c142 238
261 433 265 433 3 0 127 -204 277 -453z m12811 -29 c128 -215 251 -421 273
-458 l40 -67 -46 -80 c-25 -44 -78 -135 -118 -203 -39 -68 -99 -172 -133 -230
-33 -58 -92 -160 -130 -225 -38 -66 -91 -157 -118 -202 -27 -46 -64 -108 -82
-138 -18 -31 -35 -59 -38 -62 -3 -3 -20 25 -38 62 -18 36 -59 104 -91 152
-32 47 -90 142 -130 210 -39 68 -98 170 -131 225 -33 56 -92 158 -132 228 -39
69 -86 150 -104 180 -18 30 -33 57 -33 60 0 3 123 209 273 458 151 249 275
453 277 453 1 0 107 -176 235 -390z m-12403 -2065 c147 -247 293 -491 324 -543
l57 -93 -47 -80 c-26 -44 -74 -126 -108 -183 -33 -57 -94 -162 -135 -233 -41
-72 -101 -176 -133 -232 -32 -57 -73 -127 -91 -158 -18 -30 -35 -59 -37 -62
-2 -3 -19 25 -37 62 -18 36 -56 102 -85 146 -29 44 -86 138 -127 208 -41 70
-102 175 -136 233 -33 58 -95 166 -137 240 -42 74 -93 163 -113 198 l-37 62
272 458 c150 251 274 457 276 457 2 0 123 -202 270 -449z m11995 -21 c150 -251
272 -458 270 -460 -2 -2 -42 -71 -89 -153 -47 -83 -108 -189 -136 -237 -28
-48 -89 -155 -136 -238 -47 -82 -108 -188 -136 -235 -27 -47 -68 -117 -90
-155 -22 -39 -44 -73 -48 -76 -4 -4 -21 24 -39 62 -17 37 -55 102 -83 143
-28 41 -86 135 -128 208 -43 73 -103 178 -134 233 -30 55 -91 160 -135 233
-44 73 -85 146 -91 162 -10 26 -6 37 40 115 28 47 76 129 108 183 32 53 74
125 94 160 20 34 38 62 40 62 2 0 126 -204 277 -453z m-11573 -2063 c148 -248
294 -492 325 -543 l55 -92 -48 -82 c-26 -45 -75 -128 -108 -185 -33 -57 -94
-162 -135 -233 -41 -72 -101 -176 -133 -232 -32 -57 -73 -127 -91 -158 -18
-30 -35 -59 -37 -62 -2 -3 -19 25 -37 62 -18 36 -56 102 -85 146 -29 44 -86
138 -127 208 -41 70 -102 175 -136 233 -33 58 -95 166 -137 240 -42 74 -93
163 -113 198 l-37 62 273 458 c150 252 274 457 276 457 2 0 124 -202 272 -450z
m11353 -15 c150 -251 271 -458 269 -460 -2 -2 -43 -73 -91 -158 -48 -85 -110
-193 -138 -240 -27 -47 -89 -155 -137 -240 -48 -85 -110 -193 -138 -240 -27
-47 -68 -117 -90 -155 -22 -39 -44 -73 -48 -76 -4 -4 -21 24 -39 62 -17 37
-55 102 -83 143 -28 41 -86 135 -128 208 -43 73 -103 178 -134 233 -30 55 -91
160 -135 233 -44 73 -85 146 -91 162 -10 26 -6 37 40 115 28 47 76 129 108
183 32 53 74 125 94 160 20 34 38 62 40 62 2 0 126 -204 276 -453z m-10729
-2100 c148 -247 294 -491 325 -543 l55 -92 -38 -65 c-21 -36 -70 -120 -108
-188 -39 -67 -99 -172 -135 -232 -35 -61 -91 -157 -123 -215 -32 -58 -70 -123
-84 -145 -14 -22 -32 -52 -40 -67 -8 -16 -18 -28 -22 -28 -4 0 -14 12 -22 28
-8 15 -26 45 -40 67 -14 22 -52 87 -84 145 -32 58 -88 154 -123 215 -36 60
-96 165 -135 232 -38 66 -87 150 -108 185 l-38 65 55 92 c31 51 177 295 325
543 148 248 270 451 272 451 2 0 124 -203 272 -450z m10705 -12 c148 -248 272
-452 275 -454 3 -2 -12 -32 -33 -68 -22 -36 -71 -121 -110 -190 -39 -69 -99
-174 -135 -234 -35 -61 -91 -157 -123 -215 -32 -58 -70 -123 -84 -145 -14 -22
-32 -52 -40 -67 -8 -16 -18 -28 -22 -28 -4 0 -14 12 -22 28 -8 15 -26 45 -40
67 -14 22 -52 87 -84 145 -32 58 -88 154 -123 215 -36 60 -96 165 -135 234
-39 67 -88 152 -110 188 -21 34 -36 64 -33 66 3 2 127 206 275 454 148 248
270 451 272 451 2 0 124 -203 272 -451z m-10233 -2083 c147 -247 293 -491 324
-543 l57 -93 -37 -62 c-20 -35 -71 -123 -112 -198 -41 -74 -103 -182 -137
-240 -33 -58 -91 -158 -128 -223 -37 -64 -77 -134 -90 -155 -12 -21 -26 -47
-30 -57 -4 -10 -12 -18 -17 -18 -5 0 -13 8 -17 18 -4 10 -18 36 -30 57 -13 21
-53 91 -90 155 -37 65 -95 165 -128 223 -34 58 -96 166 -137 240 -41 75 -92
163 -112 198 l-37 62 57 93 c31 52 177 296 324 543 147 247 269 450 271 450 2
0 124 -203 271 -450z m9761 -10 c147 -247 269 -450 271 -450 2 0 43 -69 91
-153 47 -83 108 -191 136 -239 27 -48 89 -156 137 -241 48 -85 110 -193 138
-240 27 -47 68 -117 90 -155 22 -39 44 -73 48 -76 4 -4 21 24 39 62 17 37 55
102 83 143 28 41 86 135 128 208 43 73 103 178 134 233 30 55 91 160 135 233
44 73 85 146 91 162 10 26 6 37 -40 115 -28 47 -76 129 -108 183 -32 53 -74
125 -94 160 -20 34 -38 62 -40 62 -2 0 -124 -203 -271 -450 -147 -247 -293
-491 -324 -543 l-57 -93 37 62 c20 35 71 123 112 198 41 74 103 182 137 240
33 58 91 158 128 223 37 64 77 134 90 155 12 21 26 47 30 57 4 10 12 18 17 18
5 0 13 -8 17 -18 4 -10 18 -36 30 -57 13 -21 53 -91 90 -155 37 -65 95 -165
128 -223 34 -58 96 -166 137 -240 41 -75 92 -163 112 -198 l37 -62 -57 -93
c-31 -52 -177 -296 -324 -543 -147 -247 -269 -450 -271 -450 -2 0 -43 69 -91
153 -47 83 -108 191 -136 239 -27 48 -89 156 -137 241 -48 85 -110 193 -138
240 -27 47 -68 117 -90 155 -22 39 -44 73 -48 76 -4 4 -21 -24 -39 -62 -17
-37 -55 -102 -83 -143 -28 -41 -86 -135 -128 -208 -43 -73 -103 -178 -134 -233
-30 -55 -91 -160 -135 -233 -44 -73 -85 -146 -91 -162 -10 -26 -6 -37 40 -115
28 -47 76 -129 108 -183 32 -53 74 -125 94 -160 20 -34 38 -62 40 -62 2 0 124
203 271 450z"/>
</g>
</svg>
