<?xml version="1.0" standalone="no"?>
<!DOCTYPE svg PUBLIC "-//W3C//DTD SVG 20010904//EN"
 "http://www.w3.org/TR/2001/REC-SVG-20010904/DTD/svg10.dtd">
<svg version="1.0" xmlns="http://www.w3.org/2000/svg"
 width="2048.000000pt" height="2048.000000pt" viewBox="0 0 2048.000000 2048.000000"
 preserveAspectRatio="xMidYMid meet">
<metadata>
Created by potrace 1.16, written by Peter Selinger 2001-2019
</metadata>
<g transform="translate(0.000000,2048.000000) scale(0.100000,-0.100000)"
fill="#000000" stroke="none">
<path d="M9233 16759 c-294 -38 -593 -220 -742 -451 -41 -63 -46 -68 -80 -68
-59 0 -219 -48 -319 -95 -52 -25 -100 -45 -106 -45 -7 0 -26 24 -43 53 -101
172 -299 497 -319 525 l-25 32 -1495 0 c-821 0 -1494 -2 -1494 -5 0 -3 20 -38
43 -78 24 -39 117 -196 207 -347 89 -151 193 -324 230 -385 37 -60 181 -301
320 -535 139 -234 373 -625 520 -870 147 -245 367 -614 490 -820 123 -206 372
-625 555 -930 182 -305 426 -712 540 -905 115 -192 288 -483 385 -645 97 -162
311 -520 475 -795 164 -275 459 -768 655 -1095 196 -327 513 -858 705 -1180
191 -322 356 -593 367 -602 17 -15 40 -18 142 -18 66 0 126 4 132 8 5 4 91
142 189 307 98 165 305 512 460 770 383 639 648 1082 860 1440 98 165 315 530
483 810 363 606 633 1058 767 1285 54 91 143 239 198 330 55 91 138 230 185
310 47 80 158 267 247 415 89 149 309 518 490 820 180 303 365 611 410 685 45
74 172 286 282 470 110 184 242 405 293 490 51 85 130 218 175 296 110 187
384 647 424 708 17 28 31 54 31 58 0 4 -675 8 -1499 8 l-1500 0 -57 -97 c-63
-108 -254 -426 -291 -486 l-23 -37 -73 39 c-95 52 -208 89 -313 103 l-85 11
-44 68 c-137 211 -347 355 -622 425 -91 23 -129 28 -243 28 -235 1 -426 -56
-620 -183 -56 -37 -213 -186 -243 -231 l-17 -25 -17 25 c-34 48 -149 163 -213
211 -207 157 -508 233 -777 198z m327 -355 c177 -40 359 -181 433 -334 56
-116 68 -175 74 -362 15 -476 -111 -797 -442 -1123 -61 -60 -158 -147 -216
-191 -113 -89 -283 -198 -298 -192 -9 3 -269 434 -616 1023 -65 110 -167 281
-227 381 -59 99 -108 185 -108 191 0 14 124 66 206 87 79 20 222 21 299 1 225
-58 380 -216 455 -464 13 -40 25 -107 29 -150 l6 -76 169 -3 169 -2 -6 102
c-22 375 -240 707 -559 853 -49 22 -88 43 -88 46 0 4 26 31 58 60 161 150 417
209 662 153z m1656 15 c96 -13 222 -58 289 -103 56 -38 145 -114 145 -125 0
-4 -22 -15 -49 -25 -68 -24 -184 -97 -258 -162 -111 -98 -222 -257 -273 -393
l-21 -58 -97 -5 c-71 -4 -122 -14 -192 -37 -52 -17 -101 -35 -108 -40 -11 -6
-1 -38 46 -147 33 -76 62 -147 66 -158 4 -13 11 -16 24 -10 9 4 49 19 87 33
190 68 372 -5 469 -189 20 -38 39 -70 42 -70 16 0 284 143 284 152 0 5 -18 44
-40 86 -49 95 -123 187 -195 242 -30 23 -55 49 -55 57 0 24 61 136 108 198
144 191 370 272 613 221 78 -17 199 -66 212 -87 8 -13 -113 -230 -308 -549
-28 -47 -132 -220 -230 -385 -98 -165 -225 -378 -281 -472 -57 -95 -104 -177
-104 -183 0 -16 -33 -11 -68 10 -111 68 -226 185 -302 308 -17 29 -34 52 -37
52 -5 0 -272 -157 -281 -165 -8 -7 43 -89 106 -170 84 -109 203 -224 297 -290
39 -27 74 -52 78 -55 8 -7 -33 -80 -217 -390 -378 -636 -542 -909 -548 -910
-5 0 -8 728 -8 1618 0 1802 -4 1685 71 1841 33 67 58 102 118 162 110 110 217
166 371 194 95 17 149 18 246 4z m-4036 -139 c0 -3 -22 -58 -49 -121 -55 -128
-189 -450 -291 -699 -67 -162 -124 -298 -311 -737 -52 -123 -97 -223 -101
-223 -4 0 -80 123 -169 273 -89 149 -237 398 -329 552 -92 154 -227 381 -300
505 -73 124 -162 273 -196 332 -35 59 -64 111 -64 115 0 5 407 8 905 8 498 1
905 -2 905 -5z m7917 2 c20 -7 18 -13 -49 -127 -80 -136 -132 -224 -243 -410
-156 -261 -446 -746 -595 -997 -139 -235 -170 -280 -170 -247 0 6 -49 127
-109 268 -60 141 -123 290 -140 331 -16 41 -60 145 -96 230 -36 85 -127 304
-202 485 -74 182 -148 359 -164 394 -16 35 -29 68 -29 72 0 10 1765 10 1797 1z
m-7481 -419 c48 -82 158 -265 244 -408 86 -143 244 -406 350 -585 172 -289
339 -568 409 -683 l25 -40 -50 6 c-27 3 -188 20 -359 36 -170 17 -330 34 -355
38 l-45 8 -225 377 c-340 570 -390 654 -390 666 0 6 40 105 88 219 49 114 117
277 153 361 35 83 65 152 66 152 1 0 41 -66 89 -147z m5383 40 c24 -54 87
-203 142 -331 54 -127 105 -245 113 -260 17 -33 19 -27 -67 -173 -356 -605
-518 -877 -529 -892 -11 -15 -54 -21 -268 -42 -140 -14 -316 -31 -390 -40
-177 -20 -166 -21 -141 18 12 17 67 109 123 202 414 697 565 950 734 1231 106
177 200 336 208 353 9 17 20 31 25 31 4 0 27 -44 50 -97z m-5789 -1458 c174
-294 283 -481 297 -510 15 -32 11 -51 -131 -710 -19 -88 -36 -173 -38 -190 -6
-60 1 -72 -325 475 -97 162 -199 333 -228 380 -29 47 -59 100 -69 117 -19 38
-37 -14 154 438 67 160 127 301 132 314 8 23 13 17 67 -75 32 -54 96 -162 141
-239z m6270 324 c0 -6 22 -61 49 -123 83 -188 218 -508 236 -561 l18 -50 -75
-125 c-206 -345 -517 -868 -527 -887 -14 -27 -31 -30 -31 -5 0 16 -171 791
-189 859 -8 29 -2 44 67 160 41 70 135 229 207 353 72 124 153 262 180 308 47
77 65 97 65 71z m-3410 -1186 c0 -643 -3 -984 -10 -977 -17 17 -520 860 -743
1246 l-27 47 113 74 c225 150 463 359 587 517 35 44 67 80 72 80 4 0 8 -444 8
-987z m-1700 168 c102 -11 265 -28 363 -37 l178 -18 176 -295 c96 -163 257
-433 356 -601 99 -168 261 -439 360 -603 98 -163 181 -305 184 -315 2 -10 -42
-95 -108 -207 -62 -105 -143 -242 -180 -305 -36 -63 -71 -116 -76 -117 -5 -2
-87 128 -182 289 -371 624 -646 1087 -701 1178 -31 52 -141 237 -245 410 -103
173 -230 385 -281 471 -52 86 -94 161 -94 167 0 6 13 9 33 6 17 -2 115 -13
217 -23z m4000 24 c0 -3 -47 -83 -103 -178 -57 -94 -177 -296 -267 -447 -90
-151 -302 -509 -473 -795 -524 -880 -794 -1334 -1032 -1735 -125 -212 -234
-395 -242 -408 -15 -25 -12 -30 -175 255 -16 29 -33 55 -38 58 -4 2 -28 -30
-52 -73 -24 -42 -79 -133 -122 -202 l-77 -126 120 -199 121 -200 0 -617 c0
-340 -3 -618 -7 -618 -8 1 -82 122 -401 660 -189 318 -319 537 -351 596 l-23
41 160 269 c306 517 670 1130 746 1262 43 72 81 132 85 132 4 0 49 -71 101
-157 52 -87 99 -164 106 -171 9 -11 35 26 130 184 66 109 120 201 122 205 1 3
-45 86 -103 184 -58 99 -104 182 -103 185 2 3 50 84 107 180 57 96 189 319
294 495 396 667 602 1012 643 1076 l42 66 109 12 c59 6 203 20 318 32 208 21
343 35 358 38 4 0 7 -1 7 -4z m283 -437 c3 -18 25 -112 47 -208 56 -236 120
-534 115 -538 -2 -3 -80 -23 -172 -47 -92 -24 -251 -65 -353 -93 -223 -60
-240 -64 -240 -56 0 4 49 88 109 188 60 100 142 240 183 311 62 107 218 370
275 463 17 28 29 22 36 -20z m-4727 -85 c37 -65 165 -280 282 -478 118 -198
217 -364 220 -369 8 -15 -61 0 -273 59 -110 30 -264 71 -342 91 -163 42 -154
31 -124 152 11 43 43 185 71 317 57 266 78 345 89 345 5 0 39 -53 77 -117z
m279 -1232 c392 -102 500 -132 522 -141 14 -6 124 -181 316 -502 161 -271 302
-507 311 -523 l18 -30 -82 -140 c-142 -242 -273 -459 -286 -474 -10 -11 -45
42 -190 285 -97 165 -223 376 -279 469 -56 94 -216 361 -355 595 -139 234
-269 451 -290 482 -21 31 -36 59 -34 61 6 5 88 -14 349 -82z m4411 55 c-47
-72 -1043 -1738 -1096 -1833 -13 -24 -27 -43 -31 -43 -3 0 -55 82 -115 183
-59 100 -143 242 -187 315 l-78 132 67 108 c36 59 176 291 309 516 134 224
247 412 252 417 5 5 158 48 339 96 181 47 376 98 434 113 58 16 109 26 113 23
4 -3 1 -15 -7 -27z m-1562 -1983 l186 -307 -27 -45 c-14 -25 -121 -206 -238
-401 -116 -195 -278 -466 -358 -602 -81 -136 -152 -250 -157 -253 -7 -4 -10
215 -10 616 l0 622 117 196 c64 108 137 230 163 271 26 41 63 105 84 143 20
37 41 67 46 67 5 0 92 -138 194 -307z"/>
<path d="M12768 6737 c-142 -53 -207 -144 -208 -288 0 -119 51 -202 163 -261
36 -20 57 -23 142 -23 85 0 106 3 142 23 111 59 168 150 167 267 0 119 -55
209 -159 263 -61 31 -187 41 -247 19z"/>
<path d="M17627 6633 c-4 -3 -7 -233 -7 -510 0 -276 -2 -503 -5 -503 -2 0 -25
20 -50 45 -62 59 -179 132 -263 161 -105 36 -200 47 -362 41 -176 -6 -264 -27
-405 -96 -270 -132 -440 -347 -522 -660 -35 -132 -43 -381 -19 -527 61 -360
249 -622 547 -763 243 -116 564 -128 809 -31 73 29 174 97 235 159 27 28 53
51 57 51 4 0 8 -54 8 -120 l0 -120 228 2 c209 3 227 4 226 21 -1 9 -2 656 -3
1437 l-1 1420 -233 0 c-129 0 -237 -3 -240 -7z m-382 -1213 c173 -66 309 -219
359 -406 24 -85 31 -257 16 -351 -33 -210 -144 -370 -315 -454 -90 -44 -155
-59 -259 -59 -270 1 -488 179 -563 460 -24 89 -24 299 0 390 58 218 218 385
420 436 81 21 267 12 342 -16z"/>
<path d="M2380 6498 c0 -6 13 -40 29 -76 16 -37 52 -123 81 -192 56 -134 182
-435 395 -940 73 -173 224 -531 335 -795 112 -264 226 -536 255 -605 l53 -125
261 -3 c242 -2 262 -1 268 15 3 10 43 106 88 213 46 107 124 294 175 415 51
121 141 335 201 475 59 141 117 278 127 305 11 28 61 147 112 265 51 118 101
237 111 264 21 51 170 404 270 639 32 76 59 141 59 145 0 4 -115 8 -255 10
l-256 2 -25 -57 c-39 -86 -134 -313 -456 -1083 -361 -865 -398 -953 -407 -963
-5 -4 -65 131 -136 300 -70 169 -180 432 -243 583 -63 151 -135 325 -159 385
-114 282 -337 811 -346 823 -8 10 -66 13 -274 11 -152 -1 -263 -6 -263 -11z"/>
<path d="M9135 6500 c-7 -11 -4 -2523 3 -2652 l5 -88 233 0 233 0 4 98 c2 53
3 439 3 858 -1 419 1 771 4 784 6 25 34 -21 411 -675 239 -415 372 -646 416
-720 l29 -50 126 -3 126 -3 113 198 c61 109 185 326 274 483 89 157 206 364
260 460 185 329 197 350 206 350 5 0 9 -382 9 -890 l0 -890 240 0 240 0 -2
1372 -3 1371 -211 4 c-192 3 -212 2 -226 -14 -13 -15 -330 -567 -538 -938 -31
-55 -99 -174 -152 -265 -52 -91 -148 -259 -213 -373 -64 -114 -119 -206 -121
-204 -2 2 -125 215 -272 473 -416 726 -426 744 -572 994 -75 129 -149 256
-164 283 l-27 47 -214 0 c-128 0 -216 -4 -220 -10z"/>
<path d="M5900 5850 c-274 -59 -485 -200 -636 -426 -174 -261 -224 -594 -139
-929 70 -278 243 -497 499 -636 289 -156 717 -180 1038 -59 94 35 224 120 303
199 41 41 75 80 75 87 0 8 -60 75 -133 151 l-133 136 -72 -60 c-145 -122 -276
-168 -477 -168 -188 0 -309 38 -440 138 -103 78 -189 213 -210 330 l-7 37 800
0 800 0 6 83 c9 102 -7 270 -34 378 -52 203 -123 331 -260 469 -151 153 -314
240 -517 275 -121 21 -354 19 -463 -5z m430 -406 c136 -45 249 -140 314 -263
32 -62 66 -158 66 -188 0 -11 -105 -13 -570 -13 -646 0 -582 -10 -555 89 53
201 224 355 440 397 92 18 210 9 305 -22z"/>
<path d="M8518 5854 c-178 -27 -350 -125 -461 -261 l-34 -42 -7 46 c-3 25 -6
92 -6 149 l0 104 -225 0 -225 0 0 -1045 0 -1045 240 0 240 0 0 528 c0 558 6
645 48 765 49 137 137 238 254 291 104 48 167 61 295 61 l113 0 0 233 0 232
-72 -1 c-40 -1 -112 -7 -160 -15z"/>
<path d="M14587 5860 c-173 -31 -315 -101 -435 -214 -43 -40 -55 -47 -62 -36
-6 8 -10 65 -10 125 l0 110 -227 -2 -228 -3 -3 -1040 -2 -1040 239 0 240 0 4
598 c3 530 6 605 21 667 70 277 284 431 571 412 183 -12 322 -109 385 -267 46
-115 49 -167 50 -807 l0 -603 240 0 240 0 0 643 c0 368 -4 680 -10 732 -14
124 -43 223 -97 334 -84 175 -253 310 -463 371 -60 18 -108 23 -240 25 -91 2
-187 0 -213 -5z"/>
<path d="M12620 4805 l0 -1045 239 0 240 0 3 133 c2 72 3 542 3 1042 l0 910
-242 3 -243 2 0 -1045z"/>
</g>
</svg>
